<mxfile host="app.diagrams.net" modified="2023-02-10T14:32:19.370Z" agent="5.0 (Macintosh; Intel Mac OS X 10_15_7) AppleWebKit/537.36 (KHTML, like Gecko) Chrome/107.0.0.0 Safari/537.36" etag="snJwoGuhQRlchnIQnvcP" version="20.8.19" type="github">
  <diagram name="第 1 页" id="x1eM3kAdGboRYYKGYKuX">
    <mxGraphModel dx="1026" dy="683" grid="1" gridSize="10" guides="1" tooltips="1" connect="1" arrows="1" fold="1" page="1" pageScale="1" pageWidth="827" pageHeight="1169" math="0" shadow="0">
      <root>
        <mxCell id="0" />
        <mxCell id="1" parent="0" />
        <mxCell id="7I1iw99TX6GhmASfaub3-1" value="玩家" style="shape=umlActor;verticalLabelPosition=bottom;verticalAlign=top;html=1;outlineConnect=0;fontSize=14;" vertex="1" parent="1">
          <mxGeometry x="220" y="219" width="30" height="60" as="geometry" />
        </mxCell>
        <mxCell id="7I1iw99TX6GhmASfaub3-2" style="edgeStyle=orthogonalEdgeStyle;rounded=0;orthogonalLoop=1;jettySize=auto;html=1;entryX=0;entryY=0.5;entryDx=0;entryDy=0;fontSize=14;" edge="1" parent="1" source="7I1iw99TX6GhmASfaub3-5" target="7I1iw99TX6GhmASfaub3-7">
          <mxGeometry relative="1" as="geometry" />
        </mxCell>
        <mxCell id="7I1iw99TX6GhmASfaub3-3" style="edgeStyle=orthogonalEdgeStyle;rounded=0;orthogonalLoop=1;jettySize=auto;html=1;entryX=0;entryY=0.5;entryDx=0;entryDy=0;fontSize=14;" edge="1" parent="1" source="7I1iw99TX6GhmASfaub3-5" target="7I1iw99TX6GhmASfaub3-8">
          <mxGeometry relative="1" as="geometry" />
        </mxCell>
        <mxCell id="7I1iw99TX6GhmASfaub3-4" style="edgeStyle=orthogonalEdgeStyle;rounded=0;orthogonalLoop=1;jettySize=auto;html=1;entryX=0;entryY=0.5;entryDx=0;entryDy=0;fontSize=14;" edge="1" parent="1" source="7I1iw99TX6GhmASfaub3-5" target="7I1iw99TX6GhmASfaub3-9">
          <mxGeometry relative="1" as="geometry" />
        </mxCell>
        <mxCell id="7I1iw99TX6GhmASfaub3-5" value="抽奖" style="rounded=0;whiteSpace=wrap;html=1;fontSize=14;fillColor=#f5f5f5;fontColor=#333333;strokeColor=#666666;" vertex="1" parent="1">
          <mxGeometry x="360" y="220" width="120" height="60" as="geometry" />
        </mxCell>
        <mxCell id="7I1iw99TX6GhmASfaub3-6" value="" style="shape=flexArrow;endArrow=classic;html=1;rounded=0;fontSize=14;" edge="1" parent="1">
          <mxGeometry width="50" height="50" relative="1" as="geometry">
            <mxPoint x="280" y="250" as="sourcePoint" />
            <mxPoint x="340" y="250" as="targetPoint" />
          </mxGeometry>
        </mxCell>
        <mxCell id="7I1iw99TX6GhmASfaub3-7" value="每一抽价格不同" style="rounded=1;whiteSpace=wrap;html=1;fontSize=14;fontStyle=1;fillColor=#f8cecc;strokeColor=#b85450;" vertex="1" parent="1">
          <mxGeometry x="560" y="140" width="120" height="60" as="geometry" />
        </mxCell>
        <mxCell id="7I1iw99TX6GhmASfaub3-8" value="每一抽奖品池不同" style="rounded=1;whiteSpace=wrap;html=1;fontSize=14;" vertex="1" parent="1">
          <mxGeometry x="560" y="220" width="120" height="60" as="geometry" />
        </mxCell>
        <mxCell id="7I1iw99TX6GhmASfaub3-9" value="抽到的奖品&lt;br&gt;后面不会再抽到" style="rounded=1;whiteSpace=wrap;html=1;fontSize=14;fontStyle=1" vertex="1" parent="1">
          <mxGeometry x="560" y="300" width="120" height="60" as="geometry" />
        </mxCell>
        <mxCell id="7I1iw99TX6GhmASfaub3-10" value="" style="shape=image;verticalLabelPosition=bottom;labelBackgroundColor=default;verticalAlign=top;aspect=fixed;imageAspect=0;image=data:image/png,iVBORw0KGgoAAAANSUhEUgAAAggAAABbCAYAAAAWeX0TAAAAAXNSR0IArs4c6QAAIABJREFUeF7sXQecU1X2/tIzvc/Qm1TpCEgVEAQUXAErTUEQARXd3b9u07W7brGvuioqothFilJFBZUuUlSq9Da9J1NS/r/v3LyZTMjMJJOhuJvnbxwmeXl579x7z/3ud75zrg7BH7rgPxL+RNgCYQuELRC2QNgCYQucZwu4g/n+QCf7QM/z/e66fi6YZwifG7ZA2AJhC4QtELbA/6oFgpr0vYxU6+dqm8Bre1/7rtrOq+39/9WGDT932AJhC4QtELZA2AJ1sUBtE3xt72vfWe15NU3c1b3n+3ptf4dZhbo0ffgzYQuELRC2QNgCYQtUtUBtk77v+7X9XSNI8AcCggUGgVwjzCCEu3nYAmELhC0QtkDYAvVngUAmf+2cQM7lnVU5L5DJ3TeM4P2Z2v5dF4ai/swXvlLYAmELhC0QtkDYAr9+C9TEHPgDAd7n+/t3dderESDUBBj8gQHttZre8wUY4ZDDr7+zhp8gbIGwBcIWCFvg7FsgoInca+VfExgIFChUnFcdA1Ada+ALCLz/ru4972uFQw1nv0OFvyFsgbAFwhYIW+C/1wKcwKsLGXizCb7MQm1/e1tMzq0JIAQKBnheoEAhmJDGf2/zhp8sbIGwBcIWCFsgbIHaLeCPQaiNJfAFCcGABu2OqgCE6iZuX5Cg93zaHygIFCiEWYTaO0X4jLAFwhYIWyBsgbAFfC1QEwvgDxj4Awcuz0X9vVeFRQhEQ6Cd4wsONEDg77fGTtQUdggDhXDnD1sgbIGwBcIWCFugdgvUhTXQQhG+v/lt/kACX6/yPbUBBN/QgT8wQOBQE1gIg4TaGz98RtgCYQuELRC2QNgC/iwQCDioDgwQCFT3Xk2hBwELNekMvFkAXwCggQJ/4MD3terYBO31cJcIWyBsgbAFwhYIWyBsAf8WqA4g+Asp+AME2ms1gQVv9qDiut66Ae8JuyZGwBcc+AMLWjjCGyz4Xj8MEMLDIWyBsAXCFghbIGyBmi1Qm+5ACxd4AwBfUBAISPD9norQgHZ71YkPvSd6/tsbFPj+rV3DHzjwvX64Y4QtELZA2AJhC4QtELZA4CDBO81R+3d14ICve4MDf+f5u57cjT8GoTr2QJvwDZ7P6Vu2bDnKYDD0s9vt3p+B211t6MIfixDuGEFYwGAwQK/XIyoqCvGJiYi0WqU5SkpLkJWdDbvNJo0aHR2N2NhYREZGAjodSux2ZOXkwF5cDJdLA5w1fTGbWzvP+9/aZ9Rr6gyNMAKMBh100MMNl9yHgqQKQ6q/VX+tfM/7ejzH5TlHva7FwNyea6jX1DlnXsP7uxxV1Da8J6fbBZfLCb3X/VY+o/ZZ3l/l81R939tevudU2sjbJuos/3ZU36RdxwW93sCm8jloy0rb8dl5VM19MnpsVdUuwdlf2ZrX5W+j0YjY+ATEx8dDrwPyCgqQlZkNt9OBiAirvM6+Ve50Ijc7GzqdDnFxcTBbrdDrdCgtKUF2djaKi21i8zOPyueu/j3/tqu0m9b/AKPeUNFZznzumvpLfdhO69/V9V3A4awcCao/VDemvJ+56lhTf1XXN/We0ejdu6sb5zxXO1S/Yxv7jjX1d3V9iu/RdhyHlf3bGh2JlKQUWK1mOJ0uFOTnIT+vAGXOcug8fof92WQyIDomDjExMbCyzwAod5ajpKREflwO9kEdrFGRcJQ7kZeXB3txkacv+drO31iszo7+Xve2c6VdKvulf1/HZ/e2XeC+zn+f0/xd1etU2N+t8g51XkPfIP/Ww03PRhvKOXqdzu2Soax3u9zO9UcPHfrcCyRwMPK0QLQJVQBClUneCzz4YwtkRLRr1+7x0tLS2zMzMwOcdPz4ifBLQVnAZLLAaDIhIjICDRs0QFR0NMod5cjOykZebh4cdOBWKxISEgQgmMxmOB0OZGfniMN2OBzQG3Qg0IDLDYfTCaePAzcaTAJCHI4yONnl3Jz03aJY0bn5L89kIn3V41bcgEGvVxOE3nvAapMZr3Hm1Fb1FfU9/g71avXX8L5Odekx5eXlKCstUdfR8b7Us6lLu9WzeT0T/6n+9jxlxfsVr3hmVK/Pel1PPqU9jtf1q3yP24PS9TqYLRYYDMp5VD0qXbfvOxWX94FLXi3juYXabedtN7YhnXdKMp29FQVFhTh14jjsxTboDHrExkTL+3TmdnsJYmJjEB0dA5OJ968AQkFBAQoLC2G326XfqQ5Am1T0oCoQ0BuiiBn92M7TCT3XUdbg5Ga2WGEwVtrO1y7e9tBsGHifCq3vEpCXlNjUY8uNePcXwe9we40jeXSeU3F61X6p7j+Ivqtmloq+XLVfAlazBQaTqaJr1WaXyhF65nhlGyTEJyAxMQEmkxl2u018T2FRoZrcOW0Z9IiOikYCFzgRkTAYDfJ6aakdBQWFKCoqgsPhFD9lsVhQVlKKwsIClJaVcvFZOU6VQ/L87dNf+KfvWFSmV7b1GsvVjvsq1/fTg9yAyWyScav11VBsV7Vfat5OvFSVgkVVfZ3/ZZK0uE5HsPDK0cMH/+IBBBqb4MsqaD1Tu3TF39WFFGTc+YAELZSg/Ta0bdv2MZvNNuPUqVNwOv2tEvy5+vBroViAE7DJaBGvGBsbg8TERNhsduTmcPJ3yuqOAy8uNhZmkwkOlwt5OXnIzM4QJB4ZGYHIyChYzBY43U7Yim0oKipEWXm5dHKLxYy4uHhZQRbk58Nmt8Pt8j9p+z4HB741Mgp6L0cdyrPW72ddKLWXotReIhPKhXboDDqYIyJgMprVjHG+D7dbQGRSYiISk5IAtwv5eblq0i8qhKOsHEayWUYTEhPiBSwYTUY4HS4BA3RO/CGAyMnORkFhoawotaPK/B/SsxJh6WCJjJQJ6YKwnc/zuBwO2IqLZBxdAC1b9e50gNUaASMnuXrodwRDRqMeifGJ4puMZjPsNjsyM9OFTeIMHRkRJf0qOiYGeoNB7CJrYKcTpSWlKCgsEJBQVl4q75H9dIh/8jdVhtR5Qvow74YAxkyW9gI89Do3DHrdq8cPH74fACdoX4DgG24IGCBowKE69oBhBr0HINwWBgjnrndUAAQPYDZbTHCRCSgvF1YhKTFJqF6T0STMQE5uDrIyM8U5x8XFCnjgitBkMMp4E4Sfky00IAw6JCYkCPtA509aj2GLkpJSQd61Hb8GgFBiL+FjXngHV0sECCbL+b83dgyZwQkSjEhOSkJ0dBSc5eVwOh3IycmVfkHnyPcIVI0GI8odDuTm5cJWXIzIqCjpR3qdHvn5eUjPyBRHL2tOEqD8AoKIkJ+WzJYOVgIE8wVgOz/P4yp3wGa7wAGChCrr41Ag0KgzIj4hXkCCy+1CVmYW8gsKZOGRnJSMuPg4GOmjnA4UFRULm0c2ge+XlipQmZefL+xnic0mC9DQ+0p9PF/lNX4VAEGH144fOUKAwIbxBxJqCjdUG2LwBgi+zAH/JkAgg/CozWabHgYI9dvxarqaN0DQ4B5/m80mpKSmIN4DDhh2oGPOyMoWai8xLgEJSYmwWqzKSbsY21L/FRYVIT83DxarBfEJCUI5utxuFBTkIyM9QyjkQLB7GCCE0A8uIIDACZyrfy0cQE2BihO7odPrYCsqlv6RkBiP2JhYARHl5WXIzc0V8FBWVobEpESkpqYKUC0qLsLp06dhK7KJgYS5VfSnUMaBMlT+rRsGCCH0OmliYRDqASAI/V+xktDBoDciJiZabo/ME31OdEw00lLTYLFGCDiQPpObDYPOIH2G7CX7BRcn6ekZKC8rlRAVWRjt4PfUD7gMyXLiEy94BkGHucePHHnAAw6qYxGq0yOcARC04DG9g68oUVgDDziQ323btn0kDBBC62TBfromgJCWlibiMdJ8efm5yMrKgcvpkEGXkpwsnZmOnbE8rvLopCOjooVZZJzPbDYLSKDDLrbZkJWVJTFkDkjqHuBySSiiunVfGCAE25pe519AAEEmcXH2/JeaxF3Ub5SVwsAwksUifUo0Lkaj9AnqX8hWlZaWCphITk5GfHycCFZJGacTINjtMBqVyFZvNCDSGiEamGICDglRemstAl0vhgFCCL2uHgFCperDe41NBkmWIW4X9DqD6BO4kDHoDSgozEdGRgZKy8pEZJqUnIyEhEQYDarPnD51WkJUpXYFLJUuyiFA48yofEhWqNOHf0UA4a9e7IEGEjSxoq9okbbQAINfgOAtVvRmD6oDCNPCDEKd+ledPuQLECpQNdyIiopEfHyCMAa5efkoLytHfHwskpNTRJtA4MCJPzc3D0WFhSIOSklJQWxsnKB2WdHBLZRfVlamov7cldfle5kZmTIJ+AMJYYBQpyZVH7rAAILvkzjKylBit4kANikpSTQuBI102LIKzM5GaXk5rGazhBbYDyngIkXMEFdWDjMd9EhIiFcZByJUixLASvqZK8ZKfWogfJVXzw+HGOre8eqRQajMgfG+HQ9w8GhaEhOSkJRMTQuQlZ0loJLTkTXCKouYqOgY+XBeXi7S09NRXlYGp6McUZERiIiIFG0CtVFK0n9+j18JQHj9+JEj1QEEb02CJkz0DjlUKZEsIK02YaIXg2Bs27btQzabLQwQzmE/rQ4gyIjT6YTS5b8ZD+ZKL61BmmgSiLiLbcVKUVxQKI6dqUikgenMmYHgJIAoJjhQzIESHBkF8ScnJorg8eTJk6JX8Le+CwOEEDrCrwQgsE8RVJKp4kqOmoPsnBwRl1nMZnk9LiG+IkxVWFCAjMxMoYkpZGzYsKHoW9iBqFtgn+MkQTqZwkcV2gjmCDMIwVjrjHPrFSDUcCdkEPQGCYGmpKQKG5CXnyehB/oeChbJSFEYW1ZahuzsLAGefI+ZMdS5sO8x3Hni+HGUlJUp0aK4vWD7TEgWq/jwrwggPASAMRpNhxCwYNE3tdFblKiFGSqyFjTtgfa7TZs2D9nt9lvPN4PADiJxKT9HTe/VTzc5t1epnkHwug8ORoNKU2vYsJFQvlz1c6XGQedwlEtqTkJiAhITEiX0wMFGdTo1B2QZ6PwZb9bpDbIiTIiPE7GiUIJhBqH+G/1XABDstuKKGhsUJxJkZmZlieaATjwhPl5pWCyqNof0p8wMFBcVib1iomPQoEFDEdOSgSIALbIVIScnR1aFTmddVP5hgBBSZzxXAEFSDN1SOyMlNVXquLD/sO8QMJpMJvE1FCNSO0XQ6XK6EBMdhcgIq4BPMpwlZaXCbjIdkqBUiaPqQ+wavBV/JQDhjeNHjhAgEBT4/vgyCN4FlWgQSRT19+MNFLTQAl9jorH229CmTZsHzyVA4ETWvHlzWY1ooKRx48Yyge3bt08mLu0gMGjZsqXE1Q8dOiQxUToifpaHloYlIim3Gw0aNJDVMsVUkrPtOXgeUS3VuFyJ833GxZo2bSrnHT16NPieFcInqmcQvC/K+LEOMXGxaNSgkQAAsgen09MltMD0RyqMGe8jKie2KiouFGdfWFAkHSIi0gqrJUKelYJHfqbUUYbyUtpGc+RVkXv9MgjB0MyBGFSlOdZbFgOV+Lqq9R4CuYtqzwkZIGgphN6ZyyHdUZUPM8QgAEG0CazZYJblCFd7dO5kDhg+iLBGiCMvKi5GdmYG8gtZ3MYloQeCB4YneD7djtPlEGV7OmPNpWWexIlgBWhhgBBSK59DgMAFLIWL9KP0pxbWrvCs/llvhaGEwqJi5ORko7zcIbU2JOVaR/mTU7IhGJKi3yXTmZ+Xp8KgftKw69t7+LPx2QUIGuNfdx8jaY46ECA87AEHGoug/fbObPCbzVATONAYBG/tgWQvaEDBwyBMPVcMAp3QqFGjwMJM3377LWw2G4YMGYJ27drh448/FmqczotOqFGjRmjbtq1UFNy9e7d8bsWKFYoiz88XJNu1a1fs2bMHR44cwZ133imdjtflbyJbAgoi3WHDhsn5/CGI+Omnn9CjRw8cO3YMH330UbXsRUgDt5oPBwYQFLBmTYNGjRuJ0pyTPNkDVlpkOlFcfLzkIrN6GVPWMtKpOVDgIDoqUnLfyTwww4H2pohRSnfo9SJUY5El0sPeR6gAgROJ2WiUNpMJSEIeNthLKFKq+0BR9xg6QBCbWi2IjY6WfG6uduigOEkq0BnCPdYLQCBw00u7mc0W5BcUikNl3QclOqw7FVsJEGRhIc5apzPAYNQhPo7pbEmIjIiQ1RzHZWZGhgpTud3CVnHsNmiQJqEqnkPbcZxlZmYp0M0USI/9gnPu9QMQaJuoCCsiIqPkPqieZ5pdfYS6Q0lz1L4/OjJCUjlVW0IEn6wvUB1zGrDvCQUgeApCUrnEPhcVFS2hA6788wvywcJkZ9RW8IQtGVIgo2SxmoVNcpQ7ZBHDPkO/Qh/AlGsu8ErtdmGjqIHh32RGaQS2T0ZmlvSdyiJqvlVGVSGtmNhYYSFoLy4SCWBD5R1CBQi8F5PBIPMKhZpmowkRUVHiq8pKS1FYXOSpL1Q3v0KAoNfhzROKQWBrERh4swi+AOEMkFAbe1BteIFAwcMgnBOAwFV8nz59cM0114h45ZtvvhHGYMCAAWjTpg2WLFkiq3mClfbt2+Oqq64SMEDGgavgnj17YtOmTdK5duzYIf8ePXq0XGP9+vX405/+JMBh//79suLmZxYvXizObvz48cJG0InQqREg8Prbtm3DV199JRMvv5eg4mwfgQIE7T6YZpSalioDi0CboQPakjG94cOG4eDhg1ix6gvkZGULlxQVGYWkpEQBFZwESPXRiXOCIDjgBMmBzYPx5VLP5Mi/QwUIzJJo3qI5Lh8yWFKhKIr8fuv3WPPl16rqYQgTXF0AQpXJgZkcZhP69rkUI0YMF8DE8tYrV67Crl0/hi6aChkgSOMK69O7Vy80bNQIS5YsRXGJXVb0oR5VAULl1ZiVkJySIn2G6Y6cuLKzsiRkwPocUngrPk4U6h3at8fQIUNkbBF4bty4EVs2b0FOXi6cDqcwMpV3GihMCBUg0G5u6e9DBg1Cu/btpJ9znL/19jsyYYV6hAYQFLAbfNlADB40SMYAxy/935dr16K8TLGddW7hEACCVi4jwmrBpX0uxSU9eghA4CLqk08+wd79B84ApRK6lGfQwyxVYY3SPwkm+EPbx0RHywImIiICbqdT9AgMK3BxQ50Cs7WoX6FvTs9IR2Eha0x4M2iVIIFZXNS9jBs3Vn5TNLtj5w58vnyl+LQQLBdymiMXQM2bNUX/fv3wyy+/oEXzFjKXMQScmZWJ1au/wImTJxVfy7R0T/GxQPujF0DQGIRgwgxCYfgCBF+Rond4QWMPNAaBAOGvdrv9nAAE0pKTJk3CiBEjpGQwJ2VOyOwsbPgff/xRXlu6dKlQUNdff72sWggIyCyw03IlzAb44osvsHLlSmEYCCD4WosWLbBz505BbAw3sBO/++674ihuvfVW9OvXT1a0Bw4cEAfHv9euXStsBYHCokWLRHBzto9gAIKsGvU6GWi0Q3RMlAAAph41a9YMs2bejjVffoFXXpsrK2EWw0lKSvYAALenUFKO0PKcoOnsqVmQ9DWdTgAVdQ2lFJfVA0BwOVwYMmggrr/+OmFvGjVqiIOHDuOf/3pKVXoMcoBUbYu6MQgVIMHtFhtOn34rrhh+Bb5Y/QV69OiOJUs/w6JFiyVjJKQjJICg3aUbyUkpuGXyJLHVyy//B8WyMveUfK7zLAJxpirE4PuUbhGYMYTHMcYxmJdHPYEDERaKFhPE2bMkeL++fTBu7FgsXboEWdk52PbDduzds8dTxVMDgGpdJytjvcqsIdCo/tZDBwh8pqZNm2DmjBkwWcwCfMku/t8f/oTDhw+p7w8BZIUCEBRfA9w69RZceeVImUjatmmLzz//HG+/+y7KStXYq/NRZ4BQCeCYfXDz5Elo2qQJDvxyAKNHjcbzL7yAFStXCoNUZRL20YpVmNUNyYohAKCQkXUS+F5RQQFOnTwhKZEUOfK7yFZRvMh0bfpcMp+SDulhOTWb8XdZqR19+vbBvffei/TTGaKVobD2X089jbyc3JBYv1AZBKNej4EDB+L6667Fxk2b0KfPpVLwjsx0ixYt8faCd7B581ZlQ81uQfRDL4DwiFeIwZdBqJFFCBQgaECBGoSKMIMHIEw5FyEGTVNw4403SmcgMCBjQEfCiZ6TOxX5RNZ0Vpz4qU/gCuDw4cPo3LmzUJk///yzrFzYsbiq5rlkJcg2EADwbzIUnKC2b98uAGDatGkyOfAcXu/SSy+VjvzEE09g8uTJ2Lp1qyBmodTO8hEMQJCB4sln554M1B0wrEBH3qplK9xz911YtmwZXn1trvQ/PiudPT0O89qJ2ilMpIeyShGleMljJn3Nc/i8mZkZyGIxJqdTauFXlloOdAVYaTDav0/v3hg4oD9+/vFn9O3bRzZYevxvf0dZuWIw6u4M6wYQtLujHVnk5bprx6FN2zYCHmfOnIlNGzfjo48/Vs4pFLFUSABBaYv0eiM6deyEyZMmiMNZtmy5qL5DY16UBWoCCGwXa0SE9CuCCMaPucqlkJF9ikW86NwHDOiPEcOH4/7775eVEcsvl5Yo1k1VnPcctKPUuTcKuKVtvZmqqkOsfgACFwh3zJ6J3bv3YO/+fRg3ZixeePEl8R1aYZ66Du2QAYIO6D+gH1o0bYbTp09hwoSJWLpkKT5ftkytukMJbdUDQGiQlopbb52K0hI7Pl++Ck//8+94de7rWLJ0qWePHt9Rq3yDFOTy0B/c/yUuNk7YJvYlvk5xK9ko/rBDUGvGsAPLxJPdZA0N6g+4/wxLxlO7YLOXVAGxvKdBQwZhzt13Y8mSzxATFYWWrVri6aeflpTtUGwXEkBwuyXkQTby2nFj8e136zGgfz/88P02bN68GTeNvwmffPqpvC4lyitMGLgHFIAA97wTR48SIHiHF7wzGuoNIFTHIJwTgEAG4fLLLxcWgdQSD04oDAdwxU+wQODw3nvvCcPAgwChSZMmMsCpvmf4wDsUwPc6duwoqx6+N3HiRJn4FyxYUHEe/yZbcNFFFwk44PfcdNNNMjDJIHTq1Alff/011q1bd042rAoeIJDS00sHo604yOi8KU588m9PYMuWzXj7nQWwWK0CggjECI4yMjKFoeEgiODnkpjbnggL1caeLZU4aTPWnMEBzNBFBUDQNvwM0qVKpbVYCX80btQQ42+8EXv27sNrc18XoAAPQAh8iHh/f+gAwWDUy4QXGxeLywYMwNChw/DO2wuwavXqCj1G3e4t1DoIau82lhoedeVI/Gb0KAl7/LBzJ1Z/saZiA6UgW6PK6dUDhMpJXc30nLBdQtk3ZMZCRKRQpiyfe9nAgQKoCdCZ4rZ8xSrs2LGzSnkkhiw4QZA5IHUdn5CoBLSZWX5Xy1K2mQAlhFLLFF62aNkCd8yahf3792H1mi/l/vfu2w97SbGXjrtuFgwZIIAA3SoMXs9LumP8TeMxd+4b2LJ1iypBfF4AQgV0ln0XJk+eIBqTvfv24frrrsezzz6H1WvWaJ3Dy3D+Fg704xFITUmp8EEsnpWVkyVVO1mgKy4muqLKK8EkwSX9PfeViYqMlLLy2ZlZwkzJXiCebxSAMHgw7rnnbqxctUri/U0aN8FTzzyLzPTTIdkuFIDAuYtkQO9evTFt6i34/ocfMLBfPxkbG9ZvwJQpU7Bw8SIBCOXcuEo2wAtu0eUDEMgc+GoQvIsm+e7LEFSIwRsc8N+UITPE8IDdbj8nAIGMwZw5c9C6dWsRGzKsQPqfB1+jLoCr/y+//FIAAlczBBUXX3yxTO7UGZBB4EGRClkCTvz8+eCDD3D8+HG88MIL8pmnnnpKdAoEFq1atRJ9AnUNBAgUNb7//vsiUqTwccOGDbKaZKbEuTiCBQje98QWpwOmPzGZrZj7n5exb+9efPTpQqlyxg5LepgDx17CFbvaYZConWVQKaLRxEAOl1PqKZzKOIUSm8oekSp7FZs1cWtlVf1MizsGspJ1u52IsEZi3Jgx6NXrErz62usiMuUkENzw8G2NIAACJzktU8PL+cqIcTvR6eKOeOTRh3H0yFE8+/zzOHKEmSwhSp5CYhAUU0RB7W3TpqBLp07CHPxy4CAefvxxATShxFppyVoBgvcUoIOo1Bs1bCCgkStBgk6O06GXDxEQTmD96eIlmP/WfKU/UNlqqn5/UpIABFLOZpNZwAXHbn4eC+SorKMqR0gAwSU7+xEg3HP3HLRs0QLpBL0ZGfjHU88in4V8tJur4wAPFSAI7iJIiLBgyuTJ4oueefY5EVeHBA7kuepaalnbslq2Fxbd0LRbp4o4fOeOXXjuhX9j/4F9wvrV3PeUdoDiWmEIuHcDJ/usbBQUFYk0OZLC4LhYqa2hgYPTp07JgozalqSEJBgMLM9cgBOnTqCcuigJR+rhcjnQo3t33HfvH6Q0OBdGP/70Ix5+9InzChBkTDnK0aVLV8yeOUPmmwH9+2PTGQBhwxli8EC7oRdAeNQTYiDF7S/VUQMK4uK8t4KuLsRwxs6NXtkL3hqEcwYQONGQBqQ48ODBg5K5cOLECREZ0tlQdMgwAuM31BSwmAvTaeiUiBrJHBAEEBzwN3UDFC7yb2ZA9O/fX7IVCBwIBD799FO5FlfbM2bMkLACwQHfI8NAYPHwww9j/vz5ePHFF89JeIEdIxSAoDka0nNkC+a+8gqOHz2KTxZ9KtkC1BTw+aXOgV4ncUDu1Mf0NKY5qu1qqWvQyznUdNDxazFiESlGRIlYUVCIBuOJFOj9a42fcX8IPVpf1ArTp07B0aPH8NLLL8v2wpVHXdP4AgcIilLmlrD0XOq7+U+9XicbXkVGR+PyQZdh5MiRWPDe+1i5fAWcoe7UFwpAEEADtGjWHHfdORNl9hJEREXi9OkMPPjgg4iMPXcAQaZunRL9NWzUUJw6y+ZmZGUiwmIVCplqWa7odu/Zi7lzXxf9hoBXk6rsScEjKWceqmx4nlRqZHlwbuFLnQC05w0IAAAgAElEQVSV88weUVqF+mEQ7rrzDlX5MTtbYsP33vdH0UhIDLjWvlu9264vgJCUGIff//734oNeevE/yCsoCF2AWmeAoI0KHeJiYzBxwgS0adNaQDP96DPPPIsvvvzS4wNq4tU8c5JbJ4s6ZliRFVKhMUg/YnYJtQN8neLW9NPpsJeUwGI2iQA7IS5BhUXz8nHy5CkZrfTbXAwxe4HAmaCeFRy7desmjMQ//v4PKc4VCsAKhUE4AyDs3ImB/fth4waNQbgFCxcvxrff1StA0BgEbyahxi2gAwEI3mmOmgZBfp9LBoEGZSYB9QJ79+5Fhw4dBHHyYCiBsULScMxmIBggFcxJnwCBfxNgUOBDDQInQgKMQYMG4bvvvpPP8dxVq1bJSoWOn+wE4/PUHZDu4Wuk8yhGJBgZO3asgAQiv4ULF8p1L0QNQlW3pVZfzGbgKu3Vl1/E8ePH8P4HH+HkqZNSZZGAiYPGSoEZS+YmxEusjJUZ6cjJsHCipA1ZIa/EzrLLagJlrDkqJlaliTkoKvQsUQKEvHQAFFGSJr/00t74+JOF2LLle4kxVi7kzz5AUIig6qSglZymQLFZ0yZYtmIl5txxBzZv3YqPPvq4ItUxwEc987RQAAJhlU6Hrl264Lf3zBG1d1JCIk6eTsfDjzyKbJYxDvEIlEHQ1vZ6g05VXIyLl7HEjb969e6NLp07Y/ny5Zg5cwb27T2AuXPnimZBhcDM0i+5ijQZTLJatJfYkZGejvz8Aum7LMKUnJwkIJQZNqSiZXVd5xCDAoJkEGbPmok9e3bj8NGjmDP7Dtz/14fx888/qRXc+QYIOqBli2b44x//KGzoRx9+LNu8hyKe9CzdQ9usyQ00aJCKqVNukX63bNkKPP3Uv/DmW29h0eIlQv0Hyl6xfdmPZYTr9SJW5A/TFFVKcZHoBggSOPmzn3DSJ7NZ5iivKPJGETX7Er+XgCOtQarMFzt37kLHizuiRcvmeObpZ6VfXSgAYeeOneg3oB+2bNwsrPQtN9/sCTGcVYDgb4fHoBmECwIgcIJnZgJZAjoYChMJAkizcdIiW0DqksYlzUUajrEoxnSY4UBAwLAAz2Umglr5uqTjdenSRUAHz+Ukz89S70DxIV+/4YYbBIxQ+8C4l0oTVN/F6/I1qoq5oj7bR6gMgsphd0sBkldfeRlHjh7BG6+/qTQcpaVCrEdYma2QIOdwtUabcHCy4hnRONkDUrAUehJsSOEcUSDHIT4xURw5c5SJ1JWIOZDIvFvyp9u3a4fpt94qKwauQCgaO3zokGffSVrXi5kIytiBMwj+LstnIs05c9ZMDB50Gd56ewFGXTkCq1atlloYVJOHdIQIENgGF7VshVFXjUTjho3QuUtnHD9xEg8/+iiOHz8RYBtU/wSBAoTKdaUbBpNJ9gdhjjvH2o033iBjaeHCT6R+ydp13+CN198QsZnZZBQwoW1Hrt0J+xpBO1kIggNOCjJp6A2yIRmLf7F/WiLqut2zAggUNd95xyy1sVRGOq4edTXu/cOfsXfvHqUtCqgP+7dfKAyCBrgIlvr174cZ06fhrXnz8e2333ly5EPqdSGEGDzf6wbS0lIwbeoUqV2wdctWzJo9Cy+/8goWL17qI7Cr/V5FVA1VOyMtJRXRUdFwlJWisKhA/Cu1B2x7MpuJSdyAziysDwtuUQ9FATXDzwwlEGnQ/1zU+iJMveUWWcwJcNDp8OTf/4kcqZtTtxoDWj+v+26OquBTl65dMfv227F9+w/o378fTp08hT1796Jfn75Y8N57+G79RhFk1qWOiZ8Qgy+D8N8DEOgAGUqgqpmCQlLkXO2y00iRk6gocR40JIEABzXPozaAToYNydQ+6hH4Oa74uUEMr8P3mAqpMQAEABQ+8jwK9ahj0CZELXTB7yU4oTaC12DYQhNP1j4M6n5GqABBHA5LnkZF4qGHHhL7vP/+e7KBEwcUN+NhhUUyBxoyJxAgkGIpXQI1bulLe1GkyL0fuF0sqfeY2DhEUegISKEUnifq80DwASGAwymszKRJEyWVkizF2q/X4pOFi+B0cgLWSy5wYNfztXHoAIFM07hrx2LyzZMly4N97M0338SXX34l4Cak1VxIAEE9K5kepqqyhsSo0VdJOdqX/vMKq6mpVVwIk1wwAKGK5T2VfTimBl02CHfddafUj+Df8+e/LcCa1HJ8bCwSkpKk/5ExIugmU8Xyy1KHw1Eu4IHnMSOH5xDkM82W7JYlIkJEmnU63G5Jn5s4YTy6desKF1xSMfSvDz4spaJVACegTuz36+sDIDAuf/VvrpYaF/PenCeMaSj3VHGjIYUYFHXIiofjxvwGgwZdJpMemcdnn3se363fpL4mGNN5NCbcSC4uNh6J8fFSCCkj47T4A/ZhlohnhkyVbekzM0V7QBDPbDb6JN4bfXpUdKSwwFw48v7Wb1iPl158SQpNnU+AQHalXbv2uOn667B9+05069IZHS5uL32fmWFvzX8bP+/eq/qfJ7QbTP/+nwIIsnYUwYuKS/rbY0Ern8z0RU5o/BH07zn4Pp0Rf7OjaO9Vdy1NDEVnxnOFAqOSXnKzK1Gd9ncwjVfXc+sFIAiFp5OKiQ6HU9LI6BTpnKWkdHy8MAK0kZZnHEuGJiZG6iWQmpMYoEWJh6KjYxBptcJoNsNsiRB6kHnw3MUvOyf7zFzo6h6eWSlmi+wyyc4tKUwuCBBxSyGwuoYXpNeEXmqZTImZlR6j5E6YfkTthlYgKxRnUx+7OWrKaKltLw7SpZygJ41QAZhgvHVlQwULECS7QECJNkeosRcbEyn9g/dKAM7hSaaKoQWu7jgREtiwHn+ZwyH57qSpYrkJVFyMiBZpd+72x9LgBP9cJaoQA3ULdVsRclxLOqabtRdYlMYo4Q2Vxx/aERpA8OTA63QCAKnTYJsKc1fHtqzyNKECBFpcB5hMZpj4D9IxnJidbmEk6167hL5WhyhrlFRQZB0Eip1Z2yY1LU36Af0xmc2MjHTxYWQwGHKIimRFR/IQBAgO5OblSBokt5GWSoolJbDZSkK2XigaBFXhVI0JstpuLjD0Bhgk0YBKQj3Kyh3iR+t6/M8BhLoa6r/pc6ECBNpCAR8vx8cBbjYjKTEJySnJMBmMQvsSsTN2bDJZkJqaIs4+43S6xAAp/ORg5Za9eoNBBpveYITRYpG/JQxxOh35hSp2HPjq2qWKgnofMkmodLa6H6EBBG0NqSY+r8NThCjw56vmCUJiEDyKctkfwjMje3a6k3fouEN0h3UFCN52UeyVx37cedSkqixyNcgNnKQWf2ExcnKz5TcnBJPRiORU7h4Zp8CBy4WCvDzJNCA7pdUoqLMGwbOAYMk4sZwPHlDV67Q2qxu4Cg0gaADLc2sebUzd7sRP3wsZIHChpOwmQl7tK6TPhWI31U9YPE32z3G7JLQk7IDFKqtqqaR4mhlXdglF0Hex3DP7BJkDNQRcyMnOkT5VJsXMmC+hNA7qvr2ArPipwH1MKABBOTlPAbNqQGgFb1Xh94JjssIAoe6zxa/2k/UBEDSQoJgTNRBZJjcxORFpKQQCOhQUFiE3N0cWBCylGxlFJG8XbQHz0zkQqRPQVlgGPXdkM8NotkiFMxZZYhokmQkqz4OZQDUAozlmwQYVc1xdJ7vQAEJNHSY4AHQ2AIK4UlUYNYQwQk3PGDRA8IIkFeDK6wuYEksdDx0+w4ZkDrhRT15urqrH73BIITMyCwSiXD3z2TgZkJkqKiySCoyhAgQyGZJhLt2Kq041sck04QVmQgFYoQAENVZVLRMNYHkzQcFNGWcPIFQUutJxAg58kj3zjrTFixrnLocDdrta/TPsS5BAW3DfBoZ5yaZwbxT2k8ioCGkyMgRc3JDZU+Xx2VccwjCRoSQLaNRzq3GnvF5SYpeS1Ur/EPhRLwChQuLtBRgqkKpmR00GHszd0WdWFErS0hzPrQahffv2D9hstilMNySdHz7OvgXqCyD4u1NWruNAI61LmpcDjOLPlJRkiRmzqiIHkaKC3SgvK+P0L1oFMhDMeWe6H7Ud/LxSMAcqUqzddhUDuE6T4NkDCLXfeQBnhMQgBHD9EE8JGiB4CvWLa/MIWbVbEMdqNUthHOpdSLVW7OFQUKBEi2az7A5JcTCdulrsOUVvQA0DKWOGv6RPhpjF4OmkVcgD5aM96oM69bdKg4cGEJh5pITA/o6QwWnIDIICp5U6DQY+gpvIqjyXVoPE87wuh1NCDLwiWSQK0+ljWMGVWRPUf7H8OzVotIWtxC76IPYNAkhehosXbiTGcCjBKOtrsNy8xjQQQOTm5Hp2+g383kMDCJVVbtXza9SVBgbEcYbE/J13gNCtWzepg8C6BOcixS9EH/df8fGzCRBoIMb/ubpj8RrSvimpabJ5CgcaX6PzZuEahhAYt+XudxQLUdPAmGNRsU2cvWzp64acG2oeef00XBgghGLHYAFCTd/FycQaYUWDtAYCQLlCZhEk5qWXlpdKKEHbPpqbT7ncTnHe7HNUt7PsN/tibl6eFEWjViaULIZQ2IFAbBoaQAjkG0I4p14AgndcJvAJtva7dkMAgs0msXjG61nunFkx7A9R0VECMpkazbmUr3GfBabEskYGQRV1UizhLOCA+ztItJJF3NSKnemS7D8UwjJtlv0q0CcIFSBUff7qAELtVqrujPMOEAYPHvyAw+GYwvoCHKjnYjfDupvrv+OT9Q0QVMVA7yGhXiFIoOAnJTlF4sDlHmU5d07jVrhU9HPfBg46AgVB4Xn5KHe4xPkzZY3XYEiCuepM1Tlb9HdgLRsGCIHZyf9Z9QsQKGozSuYAK+Gx+4muID1DqH7SyNzzg32MfaaoqFBqdFDdTUcvG0MZjCJQO3XqpLAI5lCyGEIxTACf/e8HCAEYoY6nMMRQYitWJaVlu3m1eRd9C/sB2U32BYY1OQflCThQtVnoh8hAUXRtMSnWkyEq1uUo594uOh0iZYtqHXKzc2R79MpdIWu/4foFCLV/X7BnnHeAMHTo0AcMBsMUVt9j4/B3mEkIthmDO7++AUK16NOgl1TH5KRkoeKYH15McOAoFyedEJ8oDpxUnc2uxEK20lLExamyzMx40BkMKCoslAImZBICq6YYnD0CPzsMEAK31Zln1idAkKuLc1b197kPCBkExo2ZIcKwAzNqeI7NE2tm/6NDZ1ndlNQUGI0mBRBOnoSNGTVhgFC35q0XBqFuXx3IpxRAsMlmcDw0fRLDBNx5lgCBRbO4CDl56pSEHdhPyDKJfiUuTrRRBAwMTxUWFUoGTHGRuqbZYlbh09JSEUQGc4QBgtLqVFsoqV+/fg9YLJYpFBUR3VOLwPjzGbXSg7F6+NwaLcA9FIS+P9uHqMxNkq1AirfUZocDbtkNkqpzi9kKnUEHe7Edp9NZyKZIiuI0bNRY6GEtDYlonfnqxTaboHa3tl+wyyMb91awsbdp2Yza82nMm7ZXiXgJj4pMKwfvj+H0vg69g4vhjlKJZ4YioTpbZpcdESMjYZRUPS87eKvQPM9RhfDRXvPey0X7jD/7eNvOV/vk7/oee7MOAR11MCus2mxF5knbhIgZCYwjM8edoS0K0ShAY/2R/II8URHGxsWo7cijogU85OXm4NTpdIk1y26SZhZ49bBh3oytZoe69C3ffuTdNgJ0PG1VQ991O52w2YqkVsaFdshkGsF+x8qDfkLeWn/xVZp6pyz4jj9/9q6hb8mA9O2rnmtSvCohBkfVdD/6npjoWNkgKjIyQsILJ0+cEgAgGVkJiVKym4WT6L8kLV2yBtxSspvltMmGavvEVJmz9Eq3wPaqaS7j9SwWKyxRVs/9e1I5tOwEzdFo9vH1W358VJU28O1b3j7Qu62quT73vjXq3POOHT16fkSK/fv3fyAuLm4K75XhBTIIXAX8rwCEkBXEdfAWsvmJlCPVwgK+sSt/ilfvEez9pVVDC8rbVb2epP24XZLCyJQ0pkJSUc6zqC7OymK520JZBZIW5jlE91LSmbE+t1sGN4ECww0Ekpon8hfe4D1U3m1l+MP33Mq/1dnq/9o+k+rfVc/Rwe2srH2h7iFY2/nax981ArGvdxtV7vlAxkWla2hPoj2/6mna83g/sXZu5U5vVc/VNlLWrqruWF3X+7fW9pUWrGwFec3lrFjFVdruzP5SNZ7vO3P42lvdPUWK1L6wwFNMXKzSs9jsElbg4oM2iY6MkgI8BBGkhBljZkiiqEil0eqN2jrG1/6+tqv6XFofUPr1M+1SOUI0e1XTt7w+W3kH3Laa3+eSWLp3v6461qqbmbUrBTKmazvHp6201DruOaI3yn4nzD/Q+pZvf6naP7z7pbJapVWC77uVAseq9peeSj9C9qBKerF6FmZexcTGyO6vBP9ksQkoYqIIJJNkcUN9ARetfD8qOlpEjWQ9mS1zOiNdievloVVpddqAgIM/pWVlUs7ayWyZiibypCbK+SpdUmcwevzxmf1d80u+fUsbr9X7usq2r83X1dh3ne55Bw/uPz8AYcSIEQ9YrdYpBAdSmz8jw2sC0FSaTKXzGpQeder/CoioAwao8SN6o9oLIVAhTX19P1d6FJWxAiMP5iALM1BsEyEQWQOKGSkiIzBgSVTu3cDVoGzH6lSispxcbseqhEC+w0m71+rgjDZGa3q/uueV73MSsJCqPB/Qzv+dSTt6HoiORgMI/qa5mp6tNtv5wslg+wVXWgQJZ+PQwAo35mF4ir6BTl3AASD9inFkOnyu7Ojs2fe0sAOZLmY9EMyyqBbDnKSLNadeW3/yagK/jxeq7Ti5EZwGl0R3NiztDV209BIpYCJFenwP3zHq7/1AbFeX8VrRn5nVIOEF/1dhzRUWdaO4kOFPChllD5D4ePFDubm5AhzYpyhWZK0E9hX2Le7RIyFxT7YKQw3UVMXHKyDKUvFM9SbTIBoqr0EmtuH/dHqp++I7Xmuyi++yrEafVUM3qK5fVkBFYhmnc97BX345PwDhqquuesDtdkuaI0sN0+ikrGhoHpwU2DDeYEBt9qMXxiEMEoJ3AmaLVVbo3mvl4K8S+CfUuok77ZlkfwaKfqgoZhU7W5EHHCQmCIpnOhonOcaGc3JzBb2T6mOJXLZ5YWGB1M6XXfjU2DqnR5m9VAa9L1N3Tm/C58u0QS77WVgjYDAZfSr2nGso6N8ajrJylJawYE39W0sDCEyvpWPmlzAThk9OpTqre1Kpzj4kZWizs1FUUCQhBdZSIACNjI4RlosCtcLiItHLSAXOC8B8LCHO2HhFdcn6N2GQV6xc89PIpMm5b4Y/cBrkhev3dDL2zJoqsas9HfweletneRazWfZiIFPARQz38SB7yRRshkb5YzSZBTicPHlCdAnsItQxsB8lJiQhJiZW/mY6LbedpmZBpfGfOSUzhGGyct+HC6Cj+dhHOCE3QwyHzx9AKC4unsJNMMggcCXJcpeiPoaK+XKykEpYoHJZbarElYC2QgiDhODGlMlilfj+2U7NqnpXiuSS7VNjoqWaHfPQRQiUmCg0H/dkYOYQhYrMQWbbs70pQuOWq7xfVmVkBTwNtWu03pkW8Kaig7NP9We7Qy+1XF+34nMdyWXX6zwaBE8sWM4JhOkIZH0byDn8vurXjAQIdlux2gI7xKP61vVU3CTVq9epHPfERCkJzg16CBq47TMXIlInISlJiuRQsMh9GBii4ROwf9EfkbGSXUWrPWpbI2s20drC34VqvwbDC7aiQk8hngthIvFqAU2k6NncKPCmrf25A7+W15kSxq+svKqlOWoiRe1MVSBL/eXNp5otJjRu1FjSIaUsfEa6MJmR0VGS9cB6CEyTPJ2RIZs10RIEpmRGKY6Ni40VMMEFLIEB+xDDXRUhBg2neB5fNmvysKqBPW8gdguUY6j5Gxm608M178T50iAwzTErK2vKnj17pAAF4z5cAZDm4UHURSDAildsUNI+HPA0qohKTp4UABE+ArfAucpi8L0jFaZziaPmwCQIpAiImzQRHDBskF9YJE6cqJy0H6k6ahKoInaUlyMzO0tif06XR3AkIp2aqv+pCVKq3dV4XiD2u8CzGPQ6WCIjpKz1hXjUexZDDQ/JCSIiwiobodFhM87LVMZMVucsLIDFZJFMBi5GyCqQqSp3uuBwuRBpZfw4Uhw8NxRjGIL7FpzPI5zmWHfr+2Yx1HYlo8WIBqlp4ntYqE020OM24dYImXf4WlZ2FrIzs6XQG8MDUZERkvHAEBfBAdO4mbKdk5criwrRuOh1UolRasFUCCZVnQVzpAq7XmjHeU9zZCXFkpKSKYwHcqcsggRt4yOtwpe2XauqjObJbRaBm13CEmGAEFy3Oh8AobL0MauPqdgu27pJkybipPk+N2XKy+Nua3pRlItgkeCBKmJqEvLzkZmdKemOBp1B7d/ATbNkQy3+cBCqinFWs1XeJ52sqZfVngKhxCQucIDwX1ZJMbheXfVsgYU6IDUtFQ3S0kQsxkUGUyGpQWjQSJXclWp4gIDTgiKCUxsiI7ibZarE1PPzuaFTpodFCKXvhPI0QBgg1N1+BAilUiipZv2LVjKePkJ2dExJRYRM3JX7K3AHUIYWMjK482Op5OhR0CjggMyBgUWTypGbnSshUoYYNHBANosLXKZD5uXkyr4O7HthgFBDmiMBgtFonMIJgIaiMQkIpJa60ykUIVeaRPM0PkGClMO02UQgQnDwaw8xaCVQZSdJ4bt04G56svMalcE6xrd0QmOVlJajsJjxtLqLvc43QFBDXdF7LJTEVV6pnXHhLJQ7nYiNT5BcdY05IDXI/pCVky3xYYqAmA5JgMEBVlpSIoJGggFurEIHn8CNeSxW+RwHKinj0MAB7zkMEOrupoFzySBID5PMBD1SUtLgcJDuZXYUd/NLkNQ2Fr4hU8UUR7PJKHFl7uVAhisxKUH2/yBFzD1BVJghDBD8tv+voA5CYACB3kQxjpxromNjZHt6hkHphOlzC/ILBCBwcicjEBFplaws7ibKBQm1Ufl5eSJMlJ0o3UqbwNoc9Gn0dw6XA9lZWZ4Knk4w5Mv05AvxOO8MQq9evSSLgRM+aRf+ZgMwBs0BTjUpww5ayIGvERSQ+tPSIbUJ9tcAFLR7ZRU4psFYzCZ5Nq6YrQQEOj0MBpMo96OjI2E06OAoL2McCHqTHuXlTuzZfwQnT2XIyrkux/kACNXfp1sKjdAujPPRDmkNG0ksT7IZPOCAJUxpB7INdPDMU6aegQf7DXOXWcmMICAhMUkGJCulUVzE1FlWP5MNnzwArC52+68HCJ5d/mq2jSdPWxkyKDPWHSAEoqPwfw5fJbimoybDxD6TnKKqexII0IcQRDKsmZSiiidRK8PKn6ysR9aB2wTzs/6f1zf24M8mPudo9EYQ1vuvYxBqbdL60xAFzCB4twfBpUGvFmlmkyzOuMjg4lUyqHQUw0YKc8AQFvsSxctKt5KLEnuJ1EegbxeRLPd6iI6WUGppqR2ZWdmiTaCWoU4MQq32C6Jz1XDqeQcIl19+uTAITCPhxC80YH6+oDUajju1UXNAREeWQe3dnaFUpdyz3qQmWJ7PBryQMxtkZ7nEBIlvNmqUhk4d28BipiMqk9UuO4+71AlnuQulZeXILchDYXEhiosKUF5SDJerXFZDpSVObPtpL7Jz6lYvIniAoASG2uHrAgNxkdX1wcr8ZRfMJguSUpKR1rAhrNZIGWB03gw9kLaLiVaCM9qKHp9FSCh2JBAQkFBYKBNAdDTjgAZZsRJsSjaE7Imu0mUFJgQ3t3luP3gGwZ+b8x3bYt2KFytvLGgfUIcQg/f9ScGXGrd19qywJOVY030Ebsi6AgS1EyG/R32Xuueq9S28c8J9t/rx7p/sH2lpqVIsiWlnmRSa5eQKG9WgYSOpk2AwmiTLhpvvsO+xOJccZ6TMVKriNZGbbA8sglHvqlPcJVPlyMuds2I4twoOAmLVFSCcWSfkzJFYOQbrOCyCYBC0sLH6XRVkVumLcFVURqi4K4/BgoUOgQKEyr6l2UhjFDTtbWUfJKtAwSJD3lpGHect6uXIZEopZxHJRstih+CA5Zw5RzGcToaBfp/dImCAoPUhdiX2M527IsNG9Sz/Y7FiJ0+xeeDjlVc87wBh5MiRD+h0uikUG3KlR4DAyV5NpokVgkSNOeD7BAkc0JpYUQMIbJgLNbOBDdOsWRNcedVING7cAMlJMWjTpqkok9PTs2AvVXuPm3RGFOQXSm2AQlux7CxGj2Iy6KVkbMap0zC6Tdh98Ah+OcIdMIOvrBYsQJDYnOxcpjYoYS0Ajm4CND4X70E2LtFBQiNS+CNIAEsnJRkLaWniqNmmZJHIHHBQMQUyMTHZE4ZySWyvqKBQWBTmuEdGRol4iPdENE+nzr6gqD6Pg/doEIIdJJWPEjxA8DaD2txFaSQE2Oj1op1QNeLVJld6vRLnBjN5VHxHsACBBWTYpp4tanlfFHJq1eJk9S3CTrX6FkdT8Zom/650mrU1eTAAQSnMqS9xSP4/V2wsaiNMk9MFndshfZJ6AnpLTuiqVAoLJhlhqCb/lcV8kpOTJL5Mipj9SwTQLjcSWXY3NVUAfD5DWpmZqnJnxYzkeWZ5oXKXRoppmarGd+n0GfLSSALet9iY4IspYwRgOoYNgxshgQIErd+wrSiG43fL9xo5VvUqNMlaFGJPj4bHQdspcEgbU5cR1BEEQFDXZQE01Z+0SY2TrBQ08vRFWpcTLGdAbTt4bR8FVYwo8CNQgKD1ObGd2MkzXg3sZ/RzfMkJPdMdU1LQIC1VwlRkmsgGMIRFhoFAm88jrFRSorCeGjjgebk53BNE7SDKIxCAIPemgSrahBUadfxRfYr28NyuXFPCqR57SqjNI9AONsx63gEC6yC4XK4px44dE8GhlupIZOYtSNSYA63wCfNUieBoXP4QHGgUEM/1LpKidSUOSl6T7AM7AI3Fz/iGJl/F0TsAACAASURBVPi6tzPn57S/tWvRiagNhorlJaZechVbnWCSIYUBA/rg97+/W+JW+/b+DIPRjfKSEthLyuBwumCxWhAfGyudhxMgBxEdH6n2+DjSWEbs3L4De3fuxb5Dx3Dg8LFzAxA8D8090Fkmmbm+DodLVubcU50aAgI2Dh5WrssvKKhIGwpmIPNrIqLIrjSWyZIrO8aHGS5ISU6V8AMHL4FSXg7ZlSJpA9ZWSExMkhggnXWE1SK1Eo6fOAGrxSLvKxV7CbJycir2eA/cxWhn1h0gcBDHxsVJv3M4CXjiUZCfJ6wIAQ77V35+HrJz8pRIN4jVZVAAQfPJsoWtToSg0TGR0l7cXpttyiMqKlrCXNlZOeLDE+PjPWJSFrAqQF5uPpweZXag687gAIJLwkjihC0WAQqsXeAocyA1rQHMRoPoArJzciUMxXr6ZODKHGXIzs6VUrj+7osTD1d1DRs2EiCgbdDDOvzM42f+Or+PfqhMlOaqBotUA/VMbpxAOZ4ZsqLorFGjhtKnOP5NBiNcLkdFBT2GQqVSX1ycrPpsTJvLzgo65z1QgCDTr5u+xCr5+szk4P3n5uShoLgIDVPTYLVSe+GUtiYtTrDEcUPqnK9pPjbg8REUQFBcJCdP0u6k8Tmp5ubmSftxe27NL2dlZQvwSkiME1FySVkJ0k+ny8bQgfY5PkPgAIFMFQXSVqQkq2qvPAoLi5GZnYGUlFTEsMYGNWL0MxERYmOCwqzMLNnHQUTWcKvwQ2KStD0XO0zxzc3PRU6WYg40dMAnMXF30Vo0CAKmPFt2c4+RVIbITHoZDwQdbGPObVxksXYHQQifhYy1fH+5AxmZmSgpUxtMBXqcd4DASopkECg4ZOiAnZPCRNnDnXm1nop7WjqjNpnznMaNG6NZs2Zo0aIFmCZJUEAlaYcOHXDo0CF8+eWXVSZ6Xu/666/H1q1bxZC8xvfff1+lciMFke3bt8eBAwdksue/+TnWafA++vfvL4bm63T6N954o3zn119/7df2pKRGjx6JqVMnYdePu7B+/XeyMhHmG24RI1ojLJ5qbkzvdMlKSIrfmI1ISIhDm9athIb/du1GfL1uPQ4ePuaJjQba3Oq8YBkEdYdAh/ZtMW7cWDRp3ETSvlatWokdO3diyi1TkNYgTQrvLlu+EosWLZaB79EhBnVzXOFFxkTDZDBJyhljwVSUx8bGyQqHmSscjNQccKBGaamxTFczGNC4UUN069wF33z7Hbbv2I5hw4Zi8KDLVBZEQQE++PBj7NmzV1HpQQwU9RB1Awi0HVXRV115pUw8LCs9aNBgrFq9Gv3790ObNq3l/rZu2Yp33lkgoJWDOzg3SApCpzYcqiHNUSf15IUGkIlh7NgxaNvmInHKe/buxfy33pHWHjBggIyrdxa8J+zNuLFj0K5tW+nrO3fswHsffSzjJpgVSTAAgbNIhw7tMGXyzdL2TrcLSz77DPm5uZgwYQKMZIkc5Vi+ciVK7HaMuWYMjCYyRw4sWfoZ1q5d69nzoaoz1Fb2ikVIk7Qzhq8Ki4qEtStjOWMuxQQPaOyI1hJMlWVKW5SADI7PSy65BP369cVXX34lGRL8d+tWLSRESHD19rsLMKBff/S4pLv0oEOHD+OVV16VSVFSbgI8ggEIzNppd3F7TBw/XmVwlJbgi9VfYO/+X3DrrVPUYqa8HKvXfCkbpN104w2yOCHoX7VqFVasXAFnMJsOBQoQZBHsEtE5x+TQYUPFzCxFvGz5cgn7DBg4ABamCTqceO+DD9C0SWMM6N9fwIPNXoxnn/+3AMVgOLZAAYIGADtc3BGTJt4km8wZTUbs2L4T8+bNw6zZs9CqVUtZvf+8Zw+OHDmCa675jTAxhQVFWLduLZavWA6n0y3VFmOjY+XzFMKy33LxZC8pQUQEt7bXi05BifOtAaQ5KqBKf8g+d8N11wk7VF5ajnXffitM1+WXDxFQU1bmlDZk3x4yeJCk7dJeb8x7C7t+/NET/goMJJx3gNCnTx/ZrInOm46RP5y8+UODcIVO4KCJFrXxxImTKHTgwIHo2bMn1q1bJ8JFAoahQ4eC20e/++67InrkBE+Hx0E5fPhwbNmyBZ06dZKV7zfffCOTzubNm4Vq7N69u1zzo48+koE0ffp0ef+tt97C/v37K8IfBAS8hy+++AJt27bFH/7wB3H+e/fulXtdvXo1fv7554p8VwoOx4z5Dbp264TNmzehTesWskLavHknDHojmjZpKivIEydPIjI6GmUlpaLYLy0pRlFxHqBzomnTprjhhhuQeSoLH32yGDt27RbUH+xRF4BASnzUqCsx4aYb5R47drwYO3fuwjffrMf06VNxYP8BAVM/bN+ORx99TABEYF2w6t0TIBBNk0Ggl46KiBTwQbTOvsE2ls28tGyFhARZgTNuzJXbpb17oXfPXjIYDh85itm3T0eLli3kXvte2hdvzJuHlatXV1TnVAvDQB11cAChMlbqRrv27XHPnDk4dPCgDNAhQ4ZgwbsLMGzEcCnEEhsTJznVf7n/fhFbamVrg7JhAABBavqDlKMeHdtfjLvuuhPZOZmS+ZGYEI/f3vM7UVVPnXqL9K1nnnsBnS5ujztmz5J+TQqazubxJ55ERlbWWQMItN21147F5IkTsX3HDnTp0gVbtm6VQlnjxozFmi+/RM9LLsGOHTtRbLfhsgEDsGzFcowcMQJr167DK/95VRVX8wMCNZBA8bNsCmYxi29gDQ7RMJ1R7U61Ap05V2NqE58kGb8TJ4xH48YN8drc1+F2ujFp0ni4nA7k5OThkh7d8fyL/8bwocMkVZcghNkTf/jTX6TYVzBHMAChpMQuk8Vv77kbe/buwd59+/DzT3vQoEED/O73v8OmTRvRuFEjHDx4SPaiGD/+JpnYOnboIOc+9/wLKCpUzGhAR6AAwZNZkpyUiBm3TcfFHTpg48aNuOyyy/DVV18JbU9R+vGjxzFq9CjMfX0uWrVsKawlmY0B/fvh/+77I3bt+lGFHQIE+MEChP4D+mL6tOkoKi5C82bNsXfPXsx9/XU88cTj4vsYVmA4c/8BAq6pWLfuG1hMJsmqmzd/vmQycD8Qs9GEcgezGlSotLSsBBGWCMRTR2U2yXxBJo59KqA6CG63sLcTJtyIsWPG4vPPl8l8deToEfGN7dq1xYYNGzBs6HBs3LRRxmbri1pKO1955Ui88MJL+HTRIk/BpsA8y3kHCExz5HbPXK0zVkPtgaxYPdkKGqvgGwbg5MwOP3PmTJnsd+3aJYI0hh3oTFgek5M/mQBO7FdffbUg14svvljSSy666CKZbMhYcKX0zDPPyE6SnPi5Mvrxxx8xaNAgASgqj1UvIGTfvn1o06YNpk2bJvfJlQoZiz59+uDA/v2SN0tm4pVXXpHG0rauTktLwk033YTomFicPnUC118/BmXlJZj7+jvSCS8fNBi/7N+H/OJ8dOl6CeDSocxWBHtRHo4dO4ptO37AL4eP47rrxqJF44b4/POV+GLtBuQHM5A9oz1YgKDVLejXvx969+qJHdu3y8qTlPTGTZtx7bXj8P7772PQZZdJ+g8nD9+d0wJyNJ5ypVaWxGWhLJdLbEk6mM6YDp+TKVeMFCpKhTxmKwiFVyZu/brrrkV8fBxe/s+rgtynT5sq8eWln32GO2fNwvKVq7By1WoU24qEdlNldAMbLHVlEHj5zp0743e/vRu/7P9FJiT2l/feew99+vfD4iVLpQZIt06d8eDDDyErI8uD8gO1mue8GgBCBRshNShU1cVWzVtizJgx2LxlM9q3a4dLe/XGn//yZzRp2gyTJ02Stl36+TJ0aNsa06ZOxddr18JstaBb167457+ekY1qzhaDwHYZPHgQevfqJazcTTfeqPZpKS1B37598eQTT2LS5MmyAGBhrZatWuCeOffg708+iaPHjuGll16SSp3+AYKyBucX9h/6BYb4uGqVza78HGrHPogzJ3XMSathgwaYNnUKTpw6iXlvvS0C2am33CIT2KnTp3HH7JkCAmnXHbt+QnpGJq4efRUee+IJnDh5KqjGDQ4g2DB85EjMmDYNH374ITZs3ACbvUT82axZs/H0M0+je9cuiI6OkTDeyCtH4ve/+y3GjR0nwPz55/8tYzvgI0iAQPp+5u23IzoyEo//7W+YcdttMvG2vqi1iELXrf0GT//zSXz40cdo3KQxTp44if2//ILf3XM3Hnn8cfzww46zAhA0MV/LVs3RtWs3oepHjxqFH3f9hO82rMd9992HTz9ZKPNUx04dcez4cUyfdiuef+45SYekfmXhp4srxNLUgHBzOYoSmfIoVWMTWFI+TlgHznkMmThdbpgiLOKnKrW4frQ9BAhRkZg8aSIGDRyI+//6IG6eNEl8GH0ZQyP/ePIfeOyxx6RPspczgWfpZ8vwyCMP4v13P8DHnyxUIZoAwdV5Bwht2rR5oLS0dAona67otQ0ytIwGTuD+0hc1PQEndDoMojeiegoduaLn9Q4fPiyNQ3TasWNHeb1r167Ytm2bOAWuGghIeO6yZcvkPU78O3fulImdK6Z33nlHQMc111wjjbp06VJhEe6//365BpkCsh3t2rVDevppYR3IXnz88ScCWLR7b9/hIkyZMhUFBUXyvdddO05CEi//5xUMGNgHI4YOx65tW9CwaSq6dO+NQwePwV1mQ2pCjFBT8xd8gI3bfsLgy/qiZ6d22LR5C5at+Q7pWTlBl7YPHCAoIZZSYEM2u4mNiUHriy7CpEkT8c133+L0qXTcfPNkrP36a1zSsydOnTyFRx99QrQTdTkYmqgACEJHRqBhg4ZSxpQTfgFTgxwOREREijKYDo0rb4YdmjZtjLvvukti5Os3bpRiJqNHXSkbrGzauElQ9IqVq7H2m29UPjOrnJWpXOXABkxwDIKn4KuYoUnTJrjn7rtw8vgJATpjx47Fe++/h0FDhuD7rd9L2h3j6A/89QFkZWTXK0DQtNjkSXQUhwlp4kaENVKyhDix3X0nmYRsPP/Cv3H55ZdLOOSnn36SFToLBd0xa6aEZpjy1bBhAzz55L/OKkDgLcYnxKNx40bo0aMHhl4+BF+sXoPYuGhcedUozJ/3FkaOvBInTpxEsb0YXbt2wfMvvIBZt9+OHT/+hJdfVAChpnirxxICcnieyWqVlb7fwyM8o3PnfTHM0POSHhh7zdU4evQoNm3ZKqvvG2+4HoydFxUWYszYMfj4449xSY8eOHLsOHKyc9CzZw/89aGHPAAhUGAaTKEkN8ggDLviCsycfhuycrJkz5NNmzYLC3fnXXPw4YcfoG2b1kJ3Z2ZkCdh/8d//xsCBlyE3LwfPPfe8+KmAjzoAhNtvn4HGDRsJkGvcpKnUmyDzS5Hzzl27cPfs2XhnwQI0bd5Uxvux4ydw40034IEHHjxrAEELW3A8cOvqXj0vwW23Tcc7by8QX0GAsGnjRvFJDGXv3bcXc+bchSWLF4uPIaW/cOEisTfDXyzsRt9NH0Oan/6T8wPDBJwXCBpUSflyOOEBqBRg+pu8PfsRMRQ0+sqRuPHGG7B23TcC7MlksPxzkyaN8e6CdzFjxgwJF9JpJybGY8OmLZg5YxrefGMePvr4VwgQ7Ha7aBCIzOiwOAFz0taKIHEAK3W6vuJH232NnWrkyJFyPj/LyZnsAFkCsgi8Bmkshh7YKN26dcPu3bsr0lMYBtD0BePHj8cVV1whIQhqHqiDILPQqlUrDB48WCgh6hc48T///PNChxEwEISQxaBwkvdFXcN3330nDlbbQ+KSXl2Fpt23d59MbqOvvgYb1m/CW/PfxLhxo9G/Tz9s/nYtul7SASkNGmPBgoUoys1Cz0u6yQYyixYvw/7Dp3BZv95onBSLLVu/x7rN25FXaAt4HGsnBgwQ2Ckln0Z9kvo2xqO5uuzQvh2efvpZWcXfdts0aR+GGL5Z9w0efPjRCgYh2JSkKgCBVLhej/i4eAGOIgwTlK0XR8IYLoEcSy9nZGVixPArMOv22/DLgV/kljdv2Yq2bdqg48UdFF3YvIUMEK6MyUKQjWCBJS1Lo3ZDBgcQKq7rdiMpNQX3zLkTGafVduaTJk3Cy//5D8jKsKJfWloDZKRn4A9//iOy6xkgCMbTeJKKBqHoSa2iOfneMWs2nnn+OezY9SOm3XIL2rZtIzFS0pMfffIpZt4+XdT/bAeKoh555PGzBhC0W6T9GMudc+cdMgbfnv+2gPKJEyfKeO/QoT3Wrv0GBw8dxBVXDJOCRt27dcdny1fgxZdehr3YptTb1Rza92j7eTC05RcguKmo1yNK0mwTEBkRCYvFjJEjhuPi9u1FNMuyup8s+hQD+g/ARS1biACybbu2eOONeWjdurXYjvohi9WM/7vvXpw4mV57d/M6I1AGwQ2KYJ1ofVEbid2npqagS9cuwohS4zJt+jSxC1fm27b9IIuha8eNFb1Ey1Ytxfc9/cwzZx0gzJw5A70v6YkffvhBNDNkp5o0bYquXTqLn+57aW8898ILUlio48UdRYfVqVMH3HPP/2Hbjp3iB1Sqbe1mDCbEoPqEW8SRY64ZjVFXXYVHH30cBpMBd95xp4QzOQYOHz2KlStXSSiOPojFkshAv/ve+7JYpVCbQsGyclXYjWJg2W/GUzKeoluV7cWMJqDIViy6Knkuv32WGgRmiemFVbt7zl1yGnUz1G+wfsfA/v1RWFCArt26CktK4Wf37t2g07mFsXzqX8/go4UKIASaB3KuGAQuXsjd8YdBzIrfZBA0gMCOQZTLgxMrnQF1BtQQkNrTdnnkpMHXWrZsKbQ9Qw0MMXClTx0By/eKYj0rSzIjPvjgA0FqBB4crAwJ8H3qDngOV/Qc0GQZRowYUaEjGDduHO644w5hFshSrFmzRsIVBCSzZ8+WlQMHHpkPAhCKVnjPdGob1q+vYBH4PJcPHYj77v29gJXU1DQMGzYCS5cuw+dLl+LmKePRtnVbfLV6OQZf3gdGiwVP/u1ZHD9+FH0u7SUdY+v3u1BarsNl/S6FGU58te5b7Nh9QGjRYI+AAYLnwloeOu3f45IemDbtVgFBr782V6oeMg5GB8jYMCfnhx97rJ4AgoIlRr1RbfkcFSW1zjl4mRVANTDBWV5uHrjByq233oqB/fti65YtaNWqtWgNbPZSJCbEwWIx4cqRI7Fo0VJs2LQZZWUlQq9KtTOBPoHoEIIECFrDuN1ITk2RQZ1x+rQHIEzEX/7yAMxWs8ReLxs4UFal9z9wf70zCP77h4q0c8zcMWsW6KqeevZZKfxy5+zbpQYAN8jiCvPv//wHLu3bB2kpyejVq7dUjfvbk/9ARvppz+59AXhpFrQqKwtssyYCU70bcXEJkiZGfc7UKbdg/XfrRdh5caeLERMVjd9cfTV27NyFxUuXoEXL5oiOiMQN19+ALdu24UVPiMFfwu2ZoJVAWG10dSZAUHoN9jvuKEoFuZTijY1RYba8POmLkVHRmDf/bclKSU1JksmW90dGhlv9MlTWvn1bibuTGj5x8oSXCLL2ERwMQGB8nhkC1DsQLDA8w62r33l3gYB4rmIvHzxYVPecMFo0ayZ9b9iwYTh9+hSeffa5sxxiSAYZhJbNmmLRkiXSZpzkGJpp2CBN6lRMnzYNTz/3LPbtO4CmTZugVfPmuO76a/HHP9+PH3bsEL2HoAP+qmXoBgUQeEmXCwkJSZhyyyQ0b94MDz/8KMpdDvTo2g0pycky2TIU9dprr6Nly+ZSKKlP3z6ycHn77bdlXuB84yh3SkggXnaq5X4z3KPBgZy8HFmgMMTDxQGzGOiHyHjWlGXA+ZFZWWOu+Q2uv+46fPrpp7i0d0/8vGevsAmNGjaSLAva6bvvNmDtunUyN7EfTLt1Cl59dS4+XLgwqA2/AgAInIDoQL1/2Cr8W8hLLVii/RYm0/OjAQNvgKABBROBgjdA8C4fTKDAFToHFlflvrQLV6wEBhS4sMNzZd+8eXMsX75cXiPAYLhBCztQN8Dr8LocJBQjUZ+gilq4hEXgNQgKiATZGGQT7rnnHgEIzFpgGILXpIq6d+/e+Pbbb7F+/Xr5Pn432QsCBFKw3323XvQJvD7v/aabbsTYcddgxbJl6D9gIK66ajQ2bNiIH3ftwpChgyTl7IvVyzF8+BCUlNrx9FPPorgwH9f85jfIzMjB6jVfwanToU/P7rAVFmPl6nU4kc4NrGp3Lr5nBA0QZJ52Iio6Erfccgs6XHyxhEZ2//QzOnXphIEDBmDL5i1Cm1NY+fjfnlTxfS8hUWBTiCpLWhFi8Nw41bqyW1pEpKQVcSXndquUSoXSy9GgUWM8eP9f0LVTBwF9DEms+fIrUWYTNFLgRtHWkiWf4Ys1X4rIiAIipqoFfgQHELSVO6lsbgzE8Ic3QKAYrEmzpti+fbusfDt37HTWNAhnPKNbZc6MGD4co0ePxtxX52L7jz+iV/euuO++e6XtWGr2+PETeHPePAmhkbZs0bw5unXtjn/+66mzxyCw3+jduHzwEPTq3UvG9MQJE4W5+OmnH9G2XTssWbQEt8+8XcDh7t0/y6Qyf/58/O0JahCO46WXXqxBg+C78PQGCKZKvOhmKigLb7HYTYL0O/aWErsNTZo0xfRpU6QSKtOQCbcWL16iQowHf5FFx52z78DLr7wifurEieMSzhw1ahQee/wxrxBDYP0vYIDgdknqYv+Bl+GKYUNFh9Wn76Uw6U345ttvxFetWLESg4cMEiZz546d6NylCxYsWIBJN42XegnPvfBvAbGB3Zny9KTdjZ4deGsaTwQvqckECLchJjISTz39NB5+9FH8sO0HlZpeUACmvP/rH3/H/LfflqyUvIJ8YbN+f+/v8Nhjj2Pbth1VfEtt4zcogCAaHR0aN26CWbNvR05ONl568SU0bdYUo0ePwtYt2yTrqHWbNvhizRpcNWIEPvjgQ3Tu0lmALLMdjp84KRkG3MCJmRkEk1zgUp+Vk6t8FnUHsnV0crK0A30YNSp2u81TU6ZqlpXMtG632Gzy5Ano168f/njvfZg2fbrML/sOHJDfK1d+gYcefACHDh3GkSOHZY7ev+8AHnn0Ibz/3of4aOEnnroSgbWuD0Bg3Jg/BAXePwQDGlDQIpohAwRhEtq0afNXjUHwBghc0ZOyJ/LSwIFWLZGUjuy+Vl4uugJO3lzJkxmgoIkKcU7MDDMw7MCVPX8THPB8hiCI8Cg4ZIiBIQMyDTyPWQJ8jzQSVwovvvhiFYDA83gtZkNQwMhQAv/NDrBkiXIQBBZkGngvBCqWCAumTZ2GtAapWLxoESZPvhnXXXe9MBp8PyLCjO3bt2Lr1s0YOXIEqM/77LMl0DmdGHHFcBw8dBSvzn0dpeUO9OrZA9u/34Xvt/8kf9flCBYgKNbNiY6dO+HuOXMkfv/lV19hz769aNmiJW6fMQNbv/8eXTp3xv59+/Ho409IbnpdjjMBgkrc5+CgsyZaZ8qg3WYXBoA1BZRgtZGkYFK127xpU1gjI0RU2qJZC6EpN23ahP79+uLNeW9jxapVkpKplZgKXGgXPEAQ03kYhDl3qRBDQUGe0OQL3n0Pw0cMF3Er+xt3GPzLXx+QXGlVqNCPUKkmowaUxVB5AaaP/vbuOZK98Mmni0RYRwX20MGDJGOGcf3jJ09g0cIlGDduDI6fPO4pMRuDJ578u2gTArdd8AzC9dffgInjb8LXX30tgHzXTz8hv7AA48aMwbvvvy+r4AP7fxGKv3+/fpj7xuuYNHEiNm/eipdffln6SGDaEv8AgXVHoiVfP0EAJ0N9pXa7+BW216CBA9C0WRP06N5dFh9ff70OnTp2QmFBPk5nZqBf337494svSfiDMWlODFyo/Pn+B3D6VHDsS+AAwSlpjVdfMwa3z7hNsoq4dfHxY8ckFXzOXXPw+bLP0bxFcxF9Moth4sQJkqXV65KeOHbiOJ5/7gUUFBadNYDAiXHGjGlo2awFFi1ahAkTxgurRxaSK2BmDUwYfxPmvTUfLVu1Enb35MkTIqb885/+jB07z2YWg+oy3Xp0xy2TJ0sq9+effY7el16KP//5j6LDYSl8AoDvt23D/X/6kzDUZNuo/XjltddEeMjFDLcSp79iOJQAgGAjOzdH2BxuJZ2SlCxlmFmzwuXWSTl4im4ZNlCbPGkrJBdcnrBDdGSEtNdVI0dKRtawIQx9F6Cs3IEWLZpj2efLMHbcOBGS05c2bdJEUhuvv+5avPzqXCz8dFGVqp61+WgvgPCIBwScVYBAJkELMUiYoTqAQOfIyZboWws7aAWQaEROrnydqx+GGriaJ0VGlK6EV6oiHbUERNEcwAQHjGUSTPB1hgXICDA8wb/JKjA2zPAF2QumOpJZIINAxMaVDFkHHqynQBaD16YSnNoGiiL5WcblV6xYISmQWq74tddeK2GKTz75WNTPVMFyTwGzyQyDQYfdu3+UdLNRV41Ak6YNkZebhRiumBOSsHHTFrz6+jwprTz0isHY9v0u7Ni1R9B1XY5gAIImsuTvgZcNwPgbb5QVFcHR6jVr8PPu3ZKyxNQvqvM/X74c77z9juSLB6s/4LP4ahCkSI1XrJGDjXE8ChO56YlUnzSakJScjCaNGwuDQwEW6eAtmzejU8eOuGzQIFlVsfLiq6+/IbFXg1FD0MFMwnUECHCLQImDlEK14uIijBg5QlacQwYPRssWzWXipXj2pVdeQVlJcMVMKvpAEACB46tlixaYPGkCGjVsgML8Auw/dAgfffixOBA666FXDAMLCH255itMGH+DjB2mu7LNX39jnji0ygJCtffEQEMM0m90bvTs0UPSzSTEaDIJAKfW5NapU9XmbXo9lq9YITojZq8wF5xx/k8XLRa2T1WoDGSl5BtiULobVQkvSUAC0055/VzuOJrPYjg6eZ0TwNVXj5KaEtu2bUeXLp2lPRn+oqN/4815GDCwn8SFGV8+tTaUdgAAFw1JREFUdfI0nnr2GVXIKYiKhYEDBLcwY926d8eUKVOEEufDrFi+Qtrtjtmz1YZ3cGPNF19JqGPyzRPBQDgrkK5YvRqffLJQGMBALCetHgSDwPHMPWiuvPJKDBs8WPUh6KR+SmJSIvr3I1UPWMwWzH/nXQkX9+/bV3wk1/Z/f/IfEhpREoTA7jBwBkF5LGoDmC5N0Llw4ULsO/ALWrVsgVmzZsqcQdtQx7Rh4ybcecdsmIx6GRdcLH688FPxNclJKbKQMREcMBSamysMCVkE+k/pV8zAkkqgeuiMRgES9GcsPscQX7HNpipcShVEpUFgnQOm7I+/4ToBcSwzz/tgtVjWluBJ9IesD8JrMxOIoQ0C3P+88qqIaaWaZ4Ct6wMQvMEB/+3NHITMIPiGGbwZhKkUdvjuUMjViQYS6Pg1VoBxZzIIjK+Q7icDwMZhLJz/5gDg4OYkr1VX5CTPgyt7UroEBAQfVEiT5uFqk68TCHB1QBZBYwAYPpAc/x9+EOEjD65oeH+se0BwQJRLBoJAhKsvggWKIbU0x759+mHyzROwefN6HD500NMRpQgqDDBIh6C/6NylPVIbpcDIOGdUlJSM/Xn3Hny3YbMUD/rNNaOwZ+9BrF6zDgV1SHHkFwcDECpr3LsRFxsjSnvGwTgxZHDDkdxcNGyYhugoVgN0yoqElexULfrKI7Ch7D/EUHkVr6p2ni2jKUKzWiKkVgLjqBQFEUASsZfY7GjYqJFMbBxIrLu/e88eia8q3+wNEmqf4IJNc9QET2xlfn98YrzUFnA5nKKEJwPC7axZJZOOk+CB9nPLzXmcVYADWe4+CIDA09mOTNeLjLBInL2opERWtv/f3rntRnJVYXh3+9TtGZ9mxhNnFEC5GI/EFRIRCPIIvAISiONDcAoQHgJI4B2IEBdIQSISIJC4AHGREGkwCbHHZ4/bdrfddqNv7VrVu7d3dVW12+O2vUuybHdXV1et2rXXv/+11r94tgDYgBomKASAKE2bnaEttzF7z21nTSuVWyR3w9q2FEAwHQF7gBdWYyR1AeZbrWOpbAA0MPGiDkc52dLLLyUiMSdmbX3D7CdOvMhdlWqTnhwE2xsDMSTU81iI8F2EONAqYWxxT3FiMJxIqHOO+wcHMsnzHBw0GpIfxFibqk3YZ8ZUTOPgyKytr6ay0MXOr0wVA6O0Y+r0sXnpoSTVMa8yrigHffRoSbRFsOf6+pbEvpdefii5FacnbfNsY0OS24oBq+TsSwIEnlkUKxfvzUsFDUqyWzs74shgs3iN+7yxtS3lzah4Eg6jGmB19Zk5SfqqFLZdwXbPSNpb3FGVFT4hAnwNTp15nTmG+02OwubmjlRLydw3PS0hy42NTbO9syv3eunRy5JjQAO63d1t2w+m3ZY5SsEB/uPoqClCUdWJCfE7+BEAyNbWptne3RVNDess6PA7Lj6HSobFewtWOfTkRBJkASjYjoZ/ouy4syMJuvcTdUUYLMbAwZENeRfdBCBUzK//t7KSxSBo7kFhgMC3ax4Cv/VHcw96fj9+/PhHR0dHQYBg7WKZBOrEcfy2Fn5dYmQYC+fOw8sPDp9JhclN5ZJZ6eoxcGZsguhSjf9ZuenSFGhrS24QzACOXWWUGRwq58xNlsm1VpPjEmvkb/IYNN+ACYWHUtTSkg0Frq99/avmwQMSv1Zt168dJGEPzf5Ww5wcHFst9Nq4OTFnpnl8JCVpUPWskDjel774mvns8hPz7nt/NX9478/mAAp1gK0cQOhxz3asJtQA4XtutvZRT0ay/SVa4N3PFh2SoRyEnktM8xosWOA+352+KzFoYsGNxr5ZXVu1dcFTNfPgwaKs8jgVstxFrreNtr/G+Bzt4VxblmMQbBpVWj+QqPfbL+m+mmIBNWayKu/ZI/fMZIcyAIFEwORM9N4IV+PoQliJ4bTKNTkHN3u8QIaYc+ZFAYI/4tJCmnS8hc0hY9FOGmVglZVT9pMUO2cyISN4MzczK84Vx0lHUY7P2CK2DLWsiq/k31BRI1LjJDbOz4mDJiHN1sJrj4aywLQcQNARJrZwaLzUPqGh5exchhWyE0LxHAQ75BTo2/PD9qnP0rklge+SIiRtXpzs/hIOjq8ryyDYb9MT4XtJdU1CkokAnLKaZ51TUzVW9dQOOtvPZHZuRlhMcicokQQokLAI0wnzxOqeMlNKYvldq0+bpUdLIpgGACEcsbG1ZU4JoZqqgAEAq85xjf2GdgNJ1zlJNXpQgTW95SVt5wCEHwdyDzQPITNBMZSk6AIE/dvK4nUrGbSKofr48eM3+gEE62sskwBIwFnjuFnJq2Y4wAFUpvLMomXf6aRaBjhjVpWq0sj7OAm3v4J+pthMXH4vaKXXX/+C+fxrnzPTd9BHTxof0blx78BUEWkxHdNst83m812z93zHHDb2zHHLyr/SAhnK66OVT8w7v3vX/OejTwQ1DrINChCKfJebM5lOSIUJrTwGwT8D68Du3pkRdE+4hiSnja1NeUipTUYDn4eL+ODqs2cJ6HNnyDKr4HIAoYi9hrpPGYCQwhTNKZInrcSdKn/m5QFC+e8Y7BOhKgbbHIfFAuOKagBWYYAVFgQsKvhhwmYQnrRaskpE6REHS3Y6AGFyfFJCEziC3b1dg0OxWzmQUDTEUPT6Bwn/ZR67LEAoepJD2q84QCj2hSkYyFCLFdhcrdjk1bMz8TWEVTRhkVCO9ABJGFhUYB8sPhTGB+CJQBMMAoCUOZ75C/ZW29yTyAgbiv5Htx6g2LmX3csBCG8kIQU/B6FvgmIWQPBZBAUImoOQ5iIkDMI3QiEG92Jw4MT2AQlsZKZDOUqd/Py85B3w4LIBBFhxax4CgEK7QIZEl8oabZD9OX9qp+fmZ0UuE2p54d6CWUSVbfauma3XzXR9QopCUFg8O6Mr3L4xnaapEGN/6VPGjNXNb975vfnb3/8pym+DbpcJEAY9J/1cLoNw7gus4M8SXfju3JGkRRgiKHPKIRFSIvFuY2Pd7AjtTHc7W38sAFHicUVBwk0ECO440sf2oncx/PnrABAYMynITTrouXBSwMH8nLBSk5M1MwaLyGS/vW32dncNUuHodixI+VpN5m9Yh/3n+8IswEQgCV4mNIM1hw0QhnqHI0A4PyslHXC5/zTMIheERS6slDYeg7FmbgI4vPKZT5t6/Y5QKvgrKrFQewWgzs3MS7kv44kFESJ0WxtWAItkSYGbJfJZytx7AMJYxfzq45UVZRA090B/+wAhrV4IlTny3W54QWeczDBDwiDkAgQ5cAIGyC8gzACFL33cl5bE+GwYF+DABqDQ16H4KF/0uzKWMdYw9wUwqAAUAkCTY1Vp7DEzXTf3FmbNAtTmLCuVmvQTn6jPmn/869/mj+/9xTQOmhc6lRsFEBIRG+7z/Qf3RXQljbF1Omm3Prqs8TABGu/emRZhEcaKtGe9cQABufKiQR2fQeg/tHTv4pkH3eNdB4CAGl7qvBOAILNyhbLQCRG8mZtHVwPFRUKMTSm1JDeBvBsWK7AHCjRO2ycJ5Vsxx+0TG1rc3k4m9qL36LoABGuTUduGzSBwfXkBwFQkrWJkQYiPgkUmz4EOpPgvyyxMm0evvGLu31+UY6LPAnCgUgz/QK5GFxzYeB9z1rP1NQGdVgY/Q31xCDfCAQgwCH55o6+BwCUoQNCVR48OggsQfHDggwRhEZaXl984PDz8Zh6DoNfK5M+POnplFZj4CSNwHGL2GJckRX54jweTEkVWlxZx9R5nCLYcyiGYi6CnWAGPj1ckU1uYkAoJLTbXwqXxB/nSUQUIXBfJfL4OQv+H0VqD5DDEbCgbosqBjbgflC9NcqB2K52qZPOSt8JKkNeZrG1TH9+SoYkOBqEpcUVWjiO3pSEGnJw+ihc7S5+KHpya7iRJiodpDsvFzmyYn/bKHEO2Q2p5fFxWgoQyiSGTrQ4NvPd8T57Tmbk5YQanJmEyO1KpwLxDCFRq4ZMcKstmnm+GlD3Oz6Q07vCgYZVEh3npwzhWyiAw7i6Xhco63X5zxGUAhDyzuc8JrCjhKHwV4SYSa2EOkEdGVA9xslrtjmnKeNqRskWmF2TtyWOAqZLus0nrccbB6uqahE0l3ya5eAHvSUvovPMr+n4CEN7+eGUFgOBWLoQEklz24BxAEL/rMAj8HWIQesSTlpeXf1IGILgXhpMHABBegIrhwQOZEV7AAWhvBz5DiQkMAuEHwAPvswrAOZBceJu26wIQlPjPTyPsxothBjS0RBmoiCGJfCkT61hK9yF6w9ME7bu1uSkPZ09WZXAaVoBwlACEEZuqU4BgS3yvarL2nyVbqtqRFsNHhwemUkqc6kU8mS5AyLCdJHV2bH37wj0RSCIHimonJmma9VDWxmTO9R42GmZzZ0uy1Ik/02uDRm7t4xMb7pKOpL1uLTvQBUA4dQDCiI27EQAI/YKEAITm4eHA2iwXHYHpwqc2ZZPXj09kHqKdNGOmhnpwpSpVTfgpFofIMtN0bmrKKgszN+HvaIKHQNzm1qZUy+DLyJFhI3fhlNCz5F8PwvFZzRaba2kBCblcY5XK2x+vPP2hI4ak4CDEICjJqGAhVU30ZyQXLJCDwP9usqIAhQQgfKsog+ADBFAZ9A0AAfRFKAFDQvWB9HEWUDIkNWoVAyEK3tN6foCDX2J50UExyp+fmKylq+xRO09yBqbqdGgco6ElgnrJNJpL6qVOUadPi+L1c/a3VD3cvStoHuoPluGTtdWka6eC3qwJuGNazZYo6YUkfK/KlnqFxL+npuvSs6KbVn31zkQnnXYbqeVDS0KO2lZVqeVs2xGKIn/F6jKMyyoQ5oCchHlp1jMllK+Ag+1tc3h0IDLhMhfduycJ1q1mU0KgsFcS2nLAkj/CpUpIBvGZODcYCSsxPGIbAKGOTPVEwsQN5pwuclXZtkMEti2iWQCFK92SRxG9mIeLiyJZTkknFV8wSpQr4pjJb7HgIMmpE9a4I3M2lTJr6+vSDAwfDmClgRhloDBZ+40DYdfLlDL22ETVmVKAUEXl960+AAHTAxTc8IIdtIFZSFkD97db6niu7HF5efmnrVZLAELZjYkH6gamgEkfJ6/CRDAEgAbiPNq4if0BBzgH0caemBDKHk0EVgOqWVD2PK7b/pNTdZngRnETJzdVF8EkQd7JSFNHn1UZwb4MLmUbZBoN8OGCWmm8M23lcwkZoG5G4pB+IESj6wR03GwJUr96t9u9e3puXBeJTIArNp2mFdK7tuN9F0j5ttP3+K02dceLa299Pe/ekKzXbJLzMYKRakkirpmx5Llw72/3Wq1ol5aDEmYgJ4FkYxEfSlrUE7Yi3Ck9HNC5mF+QVrxcOCGvZ2tr0plUGAQp80sqXENjODFu57Rtmkctr6R4VJ7gitTmW9v1lpi6cEbHR9GxpZ91Ib471vQRP/fce2ahkoDnnBX3VWz+eIc9WMJnzcyIz9qDidrfN+PVCWEOYKOwJwMDQEkjJzQ3+Jwm3AMUpuo2P43+H7Z99L55tr5ujpNyWrWP2t21k9rBnevce6X7wiBUO+at/648/YGTg+CWNfoljjrd6O9zDIIPEkKaCGmYYXl5+c1KpfLtQZMHdUVIXBlk7yIn6fS3uys/tkVwXdA8/R2UhuZ1wgwABHIXbgNIkByO5EG2dfojtjkSw0nkzTnB7tQdcnihySR0dXwF6nzEdpk4umxD13UGj59kDY+YxXrtk+RH9DIpXScUtIcXYAk5ff9zvn362cTuy4p59CynM5nt/GitVmRssTsgc/HhQwGdrAKpX0egSxLMhCael9I1QAXlaYSzmGd4BpnUWQaSlU45G641bNOE9k21K0bPhgmvXerE+o2f8mMrlSHows/EXqJqMEjTmj5XY/2MVTcstjlaD5WKLGgpw6bvDkmuHI+SbMAk1W6cL4JH5LDAVKFsimiUbU63I4tbxh6+bGxsXFgDAAINn1CZVU0GXQUoixcCbOlDSXdXGfwWscpnOlI18csPP/zw+55yYl/tA61g0GfJBYXdp6xb0SALt8APIYY3q9Xqd4oZ+fxeKpZDNijGcksdQfE4fpVl5mHlxiizABiQOudJapVJaHsuYYjbABJCq+RB78Gof84K/gy+5tfPdieZ0bLeRa/vxd6/0eMPfFBZZqQwNpiomXeYzFlsMKcwF1HNgM4+94fXmdy1hT2LGdFRQPmu1ZLXpaImFREKnYU90+t1v1/s6LL+zTo6GkNd1tYLEIrNB+48AoBkkYpvSsfL/HzKRDEWGE/4L8YSC2D8EuWPfMb1ZRYcNMR3ScJ1smkiPv+WWYCryKBe1dnp6S8++OADAELhxMSiAEHBQhaLUH3y5MnPKpXKd4dxI0FV2hYaZoAfHiZlDhQcKBgAQPBgE3LgJvE/4QhonGEjzmFcXzzGi7cADwv93KmuQBtdlTQvAjhe/FXEb+xnAReyDApfmHt0smeeEebAAwfMK9IfAiXGWi2d5C37cH6Cd88ZdkOYjkt0enmjxB3zV3keRc/zMs+xrC2y9reljDMi9AdoFOag1ZLFqiTAGiNJ+ITG8U+ME/yZsuCMJ8aVqPJK74YuKFKAoKAzz276vjZgswCrQ5L3z99///3vBdo6uyWNaUjByUeQQ7qMgfu/H2pQFoHfmrRYffXVV78yPj7+Zec4Ap073T68LjuRgiMFSXkXDWDAmNTJ8xCzgcpAZ+QraM8GTWYE5UeAkGfV2/M+K7z52VkzNj4uTXpchH57rBCvtIgFmJCVyWReUcl2QpxM9m4iNPuyD/MSY4yNfdg3lDDNPqwCFaAWOZ9h71PWKQ77+4se7zzjV/STxfbzFwdFgEiW7XhdAQI+iPuL/2EsABS0cSDvMfeodoLKe7MPY0bBZ84VuGkdumvPa5VKpZMAi87ZmbTE6rTb7T89ffr0t07ioZ+U6OcduGAhEyD4YEFZBDfc4IceXBDh/+0fT/8vdlfjXtEC0QLRAtEC0QK31wIuGPBX/Pzv6xjoa5pv4P6vn/eVE2V976Y0hRgE35n7bEJIbTEEDjiOCyxcUBBiFm7vrY9XHi0QLRAtEC0QLRC2gM8e+GBBi4+zQEIIHPRjDtJYh++oQ//3Cze4AMDPWXDBh/+3mqFMTlEcPNEC0QLRAtEC0QK3zQJuxqYPDtxVv88k+EzBuV4LHmNwDojk5QiEKhyyGIUQkAgBAxcURIBw24Z6vN5ogWiBaIFogTIWyAIIPjgIsQL9QEEW2NBzS6XAQk7bBw+q3dIPCOSxBhEclBkWcd9ogWiBaIFogWiBXhWSUMghlKPQL4yQ9ltIjBtMguyXCxBa/fsggWP7gMF9Tf8O/Y43PVogWiBaIFogWiBaoLgF8vIRQqyC+xp/h8CBy1KcYxBcB65v9stPCIUe8oBB6DuyXiturrhntEC0QLRAtEC0wM20QNBxO5eaxSb0y1VQwBD6nYID3zmH8gGKJDEWAQb+PjfzVsarihaIFogWiBaIFrhcC/SUIiZf5b/ml0L2AwWZIMQHBUVAggss8pIcXTNlJSTGRMXLHUzx6NEC0QLRAtEC19MCIeftOvueFb/XliUrHNGPOeg5dj9A4JuzHxjIYiP6Of8IDK7ngI1nHS0QLRAtEC3wYi2QBRSynH2o8iEPGJwDHoMABDVLXoJjEfbgxZo4flu0QLRAtEC0QLTAzbCADxr6/Z+3r89EyP+DrPDzwhJ5zEDe+zfj1sWriBaIFogWiBaIFhiuBfoxCT4DkJfg6J5Z8Lh5zjrvfZ9NyDJF0eMM15TxaNEC0QLRAtEC0QI30wJlwEI/C2Qep6jjLrqffxKDfu5m3s54VdEC0QLRAtEC0QLDtUAeUMj6ttzPDeLAB/nMcM0RjxYtEC0QLRAtEC0QLVDGArmAwD/Y/wEZSXB7WHqsqwAAAABJRU5ErkJggg==;" vertex="1" parent="1">
          <mxGeometry x="180" y="49" width="520" height="91" as="geometry" />
        </mxCell>
      </root>
    </mxGraphModel>
  </diagram>
</mxfile>
